<svg width="512" height="512" viewBox="0 0 512 512" fill="none" xmlns="http://www.w3.org/2000/svg">
    <path d="M0 85.3333C0 38.205 38.205 0 85.3333 0H426.667C473.795 0 512 38.205 512 85.3333V426.667C512 473.795 473.795 512 426.667 512H85.3333C38.205 512 0 473.795 0 426.667V85.3333Z" fill="url(#paint0_linear_606_76)"/>
    <path fill-rule="evenodd" clip-rule="evenodd" d="M197.926 122.667C186.767 122.667 176.066 127.099 168.175 134.99C160.285 142.88 155.852 153.582 155.852 164.741V190.757C158.787 190.403 161.754 190.222 164.741 190.222H173.037C181.874 190.222 189.037 197.386 189.037 206.222C189.037 215.059 181.874 222.222 173.037 222.222H164.741C153.582 222.222 142.88 226.655 134.99 234.546C127.099 242.436 122.667 253.138 122.667 264.297C122.667 275.455 127.099 286.157 134.99 294.048C142.88 301.938 153.582 306.371 164.741 306.371C173.577 306.371 180.741 313.534 180.741 322.371C180.741 331.207 173.577 338.371 164.741 338.371C161.754 338.371 158.786 338.19 155.852 337.836V347.259C155.852 358.418 160.284 369.12 168.175 377.01C176.065 384.901 186.767 389.333 197.926 389.333C209.084 389.333 219.786 384.901 227.676 377.01C235.567 369.119 240 358.418 240 347.259V330.667C240 319.508 235.567 308.806 227.676 300.916C219.786 293.025 209.084 288.592 197.926 288.592C189.089 288.592 181.926 281.429 181.926 272.592C181.926 263.756 189.089 256.592 197.926 256.592C213.059 256.592 227.716 261.224 240 269.701L240 164.741C240 153.582 235.567 142.88 227.677 134.99C219.786 127.099 209.085 122.667 197.926 122.667ZM256 118.758C254.235 116.529 252.335 114.393 250.304 112.363C236.413 98.4709 217.572 90.6667 197.926 90.6667C178.28 90.6667 159.439 98.4709 145.548 112.363C131.656 126.254 123.852 145.095 123.852 164.741V202.53C119.748 205.247 115.895 208.386 112.362 211.918C98.4709 225.81 90.6667 244.651 90.6667 264.297C90.6667 283.942 98.4709 302.783 112.362 316.675C115.895 320.207 119.747 323.346 123.852 326.063V347.259C123.852 366.905 131.656 385.746 145.547 399.638C159.439 413.529 178.28 421.333 197.926 421.333C217.571 421.333 236.412 413.529 250.304 399.638C252.334 397.607 254.235 395.471 256 393.242C257.765 395.471 259.665 397.607 261.696 399.638C275.587 413.529 294.428 421.333 314.074 421.333C333.72 421.333 352.561 413.529 366.452 399.638C380.344 385.746 388.148 366.905 388.148 347.259V326.064C392.253 323.347 396.105 320.208 399.638 316.675C413.53 302.783 421.334 283.942 421.334 264.297C421.334 244.651 413.53 225.81 399.638 211.918C396.105 208.386 392.253 205.247 388.148 202.529V164.741C388.148 145.095 380.344 126.254 366.452 112.363C352.561 98.4709 333.72 90.6667 314.074 90.6667C294.428 90.6667 275.587 98.4709 261.696 112.363C259.665 114.393 257.765 116.529 256 118.758ZM356.148 190.757V164.741C356.148 153.582 351.715 142.88 343.825 134.99C335.934 127.099 325.233 122.667 314.074 122.667C302.915 122.667 292.214 127.099 284.323 134.99C276.433 142.88 272 153.582 272 164.741L272 269.701C284.284 261.223 298.94 256.592 314.074 256.592C322.911 256.592 330.074 263.756 330.074 272.592C330.074 281.429 322.911 288.592 314.074 288.592C302.915 288.592 292.214 293.025 284.323 300.916C276.433 308.806 272 319.508 272 330.667V347.259C272 358.418 276.433 369.12 284.323 377.01C292.214 384.901 302.915 389.333 314.074 389.333C325.233 389.333 335.934 384.901 343.825 377.01C351.715 369.12 356.148 358.418 356.148 347.259V337.836C353.214 338.191 350.246 338.371 347.26 338.371C338.423 338.371 331.26 331.207 331.26 322.371C331.26 313.534 338.423 306.371 347.26 306.371C358.419 306.371 369.12 301.938 377.011 294.048C384.901 286.157 389.334 275.455 389.334 264.297C389.334 253.138 384.901 242.436 377.011 234.546C369.12 226.655 358.419 222.222 347.26 222.222H338.964C330.127 222.222 322.964 215.059 322.964 206.222C322.964 197.386 330.127 190.222 338.964 190.222H347.26C350.246 190.222 353.214 190.403 356.148 190.757Z" fill="white"/>
    <defs>
        <linearGradient id="paint0_linear_606_76" x1="256" y1="0" x2="256" y2="512" gradientUnits="userSpaceOnUse">
            <stop stop-color="#B27BC0"/>
            <stop offset="1" stop-color="#884299"/>
        </linearGradient>
    </defs>
</svg>
